<svg xmlns="http://www.w3.org/2000/svg" width="256" height="64" viewBox="0 0 256 64"><polygon points="46.262,33 46.646,36.039 48.18,40.739 40.371,41.265 33.76,38.689 29.431,41.305 25.616,39.303 16.377,40.472 17.319,36.046 13.723,33 19.218,30.348 22.954,28.673 25.936,27.013 29.575,25.161 36.041,19.937 40.802,24.31 41.166,28.616 42.309,30.861" fill="#25030a" opacity="0.88"/><polygon points="42.696,33 42.985,35.279 44.135,38.804 38.278,39.198 33.32,37.267 30.073,39.229 27.212,37.727 20.283,38.604 20.989,35.284 18.292,33 22.413,31.011 25.215,29.755 27.452,28.51 30.181,27.12 35.031,23.203 38.602,26.482 38.875,29.712 39.732,31.396" fill="#580713" opacity="0.86"/><ellipse cx="27.5" cy="29.5" rx="10" ry="4.2" fill="#9c1327" opacity="0.36" transform="rotate(-12 27.5 29.5)"/><ellipse cx="59.82" cy="30.527" rx="2.092" ry="1.518" fill="#42050e" opacity="0.748" transform="rotate(28.777 59.82 30.527)"/><ellipse cx="5.487" cy="39.451" rx="3.238" ry="2.072" fill="#42050e" opacity="0.844" transform="rotate(23.577 5.487 39.451)"/><ellipse cx="50.978" cy="45.003" rx="1.827" ry="1.443" fill="#42050e" opacity="0.847" transform="rotate(-10.908 50.978 45.003)"/><ellipse cx="59.407" cy="28.141" rx="2.904" ry="1.849" fill="#42050e" opacity="0.603" transform="rotate(5.991 59.407 28.141)"/><ellipse cx="26.133" cy="16.552" rx="2.788" ry="1.733" fill="#42050e" opacity="0.837" transform="rotate(-18.574 26.133 16.552)"/><ellipse cx="35.174" cy="49.745" rx="3.233" ry="1.871" fill="#42050e" opacity="0.817" transform="rotate(-25.939 35.174 49.745)"/><ellipse cx="23.05" cy="16.934" rx="1.8" ry="1.532" fill="#42050e" opacity="0.725" transform="rotate(-21.305 23.05 16.934)"/><ellipse cx="31.622" cy="29.423" rx="3.121" ry="1.724" fill="#d13a4e" opacity="0.307" transform="rotate(18.315 31.622 29.423)"/><ellipse cx="35.95" cy="34.156" rx="2.314" ry="0.754" fill="#d13a4e" opacity="0.223" transform="rotate(15.222 35.95 34.156)"/><ellipse cx="29.623" cy="26.229" rx="3.242" ry="1.478" fill="#d13a4e" opacity="0.193" transform="rotate(5.259 29.623 26.229)"/><ellipse cx="26.994" cy="28.943" rx="2.641" ry="1.636" fill="#d13a4e" opacity="0.19" transform="rotate(38.111 26.994 28.943)"/><polygon points="113.462,33 117.84,37.045 108.407,38.138 102.583,38.164 99.023,38.303 96,40.195 89.148,45.02 84.789,41.796 81.76,38.897 83.402,35.333 80.029,33 76.698,29.425 77.289,25.251 86.13,25.256 92.607,27.048 96,25.487 101.504,23.344 104.056,26.68 107.632,28.183 107.537,30.863" fill="#25030a" opacity="0.88"/><polygon points="109.096,33 112.38,36.034 105.305,36.853 100.937,36.873 98.267,36.977 96,38.396 90.861,42.015 87.591,39.597 85.32,37.423 86.552,34.75 84.022,33 81.523,30.319 81.967,27.188 88.597,27.192 93.456,28.536 96,27.365 100.128,25.758 102.042,28.26 104.724,29.387 104.653,31.398" fill="#580713" opacity="0.86"/><ellipse cx="91.5" cy="29.5" rx="11" ry="4.2" fill="#9c1327" opacity="0.36" transform="rotate(-5 91.5 29.5)"/><ellipse cx="118.221" cy="24.162" rx="1.3" ry="0.747" fill="#42050e" opacity="0.832" transform="rotate(-9.364 118.221 24.162)"/><ellipse cx="122.711" cy="39.615" rx="1.419" ry="0.846" fill="#42050e" opacity="0.573" transform="rotate(-9.021 122.711 39.615)"/><ellipse cx="99.426" cy="50.161" rx="1.525" ry="1.267" fill="#42050e" opacity="0.638" transform="rotate(21.917 99.426 50.161)"/><ellipse cx="115.524" cy="42.504" rx="1.824" ry="1.414" fill="#42050e" opacity="0.597" transform="rotate(29.133 115.524 42.504)"/><ellipse cx="100.143" cy="18.666" rx="1.736" ry="1.129" fill="#42050e" opacity="0.811" transform="rotate(-23.024 100.143 18.666)"/><ellipse cx="86.461" cy="48.602" rx="2.562" ry="2.156" fill="#42050e" opacity="0.689" transform="rotate(3.825 86.461 48.602)"/><ellipse cx="87.555" cy="17.607" rx="2.78" ry="2.215" fill="#42050e" opacity="0.629" transform="rotate(-13.005 87.555 17.607)"/><ellipse cx="111.711" cy="19.327" rx="1.944" ry="1.677" fill="#42050e" opacity="0.768" transform="rotate(0.544 111.711 19.327)"/><ellipse cx="97.457" cy="26.043" rx="3.191" ry="1.572" fill="#d13a4e" opacity="0.189" transform="rotate(15.771 97.457 26.043)"/><ellipse cx="86.626" cy="35.528" rx="1.714" ry="1.614" fill="#d13a4e" opacity="0.305" transform="rotate(37.389 86.626 35.528)"/><ellipse cx="90.013" cy="28.352" rx="2.56" ry="1.565" fill="#d13a4e" opacity="0.272" transform="rotate(-19.101 90.013 28.352)"/><ellipse cx="94.138" cy="31.168" rx="2.906" ry="0.716" fill="#d13a4e" opacity="0.275" transform="rotate(31.535 94.138 31.168)"/><polygon points="176.498,33 176.341,35.735 176.959,39.212 166.424,37.226 164.544,38.671 163.303,46.094 157.151,44.294 154.396,39.994 149.381,39.985 144.901,38.531 136.281,36.97 143.883,33 151.068,31.505 146.197,27.944 150.425,26.701 152.407,23.523 158.61,27.491 162.184,24.34 167.475,23.671 175.44,22.843 174.171,27.809 174.628,30.552" fill="#25030a" opacity="0.88"/><polygon points="172.373,33 172.256,35.051 172.719,37.659 164.818,36.169 163.408,37.253 162.477,42.82 157.863,41.471 155.797,38.245 152.036,38.239 148.676,37.148 142.211,35.977 147.912,33 153.301,31.879 149.648,29.208 152.819,28.276 154.305,25.892 158.958,28.868 161.638,26.505 165.606,26.003 171.58,25.382 170.628,29.107 170.971,31.164" fill="#580713" opacity="0.86"/><ellipse cx="155.5" cy="29.5" rx="12" ry="4.2" fill="#9c1327" opacity="0.36" transform="rotate(2 155.5 29.5)"/><ellipse cx="161.747" cy="18.132" rx="3.363" ry="2.631" fill="#42050e" opacity="0.69" transform="rotate(10.263 161.747 18.132)"/><ellipse cx="166.109" cy="50.157" rx="3.038" ry="1.994" fill="#42050e" opacity="0.838" transform="rotate(-15.758 166.109 50.157)"/><ellipse cx="155.254" cy="48.458" rx="1.327" ry="0.793" fill="#42050e" opacity="0.722" transform="rotate(-24.39 155.254 48.458)"/><ellipse cx="159.406" cy="49.203" rx="2.415" ry="1.391" fill="#42050e" opacity="0.603" transform="rotate(-21.312 159.406 49.203)"/><ellipse cx="187.736" cy="32.058" rx="2.105" ry="1.181" fill="#42050e" opacity="0.78" transform="rotate(29.127 187.736 32.058)"/><ellipse cx="155.252" cy="19.579" rx="2.511" ry="1.771" fill="#42050e" opacity="0.749" transform="rotate(-15.825 155.252 19.579)"/><ellipse cx="141.255" cy="24.272" rx="1.422" ry="1.238" fill="#42050e" opacity="0.711" transform="rotate(-27.473 141.255 24.272)"/><ellipse cx="185.103" cy="26.875" rx="2.391" ry="1.39" fill="#42050e" opacity="0.729" transform="rotate(-22.356 185.103 26.875)"/><ellipse cx="181.648" cy="24.898" rx="3.195" ry="1.906" fill="#42050e" opacity="0.85" transform="rotate(-26.355 181.648 24.898)"/><ellipse cx="164.049" cy="28.978" rx="2.077" ry="1.048" fill="#d13a4e" opacity="0.213" transform="rotate(1.764 164.049 28.978)"/><ellipse cx="162.387" cy="29.097" rx="2.757" ry="1.643" fill="#d13a4e" opacity="0.308" transform="rotate(-18.824 162.387 29.097)"/><ellipse cx="162.4" cy="29.635" rx="3.138" ry="1.246" fill="#d13a4e" opacity="0.185" transform="rotate(-17.454 162.4 29.635)"/><ellipse cx="161.275" cy="35.801" rx="1.856" ry="1.23" fill="#d13a4e" opacity="0.193" transform="rotate(-0.386 161.275 35.801)"/><polygon points="240.794,33 245.29,36.252 241.694,38.823 233.064,38.166 231.447,40.352 230.114,46.006 224,39.881 221.226,38.902 214.695,42.187 211.89,39.902 208.661,38.048 212.647,34.734 206.167,33 205.203,30.129 207.008,27.408 217.475,29.281 214.795,23.912 218.075,20.396 224,22.491 227.612,25.316 230.843,26.244 235.441,26.479 237.625,28.516 233.993,31.474" fill="#25030a" opacity="0.88"/><polygon points="236.596,33 239.968,35.439 237.27,37.367 230.798,36.875 229.585,38.514 228.585,42.754 224,38.161 221.919,37.426 217.021,39.89 214.918,38.177 212.495,36.786 215.486,34.3 210.625,33 209.902,30.847 211.256,28.806 219.106,30.211 217.096,26.184 219.556,23.547 224,25.118 226.709,27.237 229.132,27.933 232.581,28.109 234.218,29.637 231.495,31.855" fill="#580713" opacity="0.86"/><ellipse cx="219.5" cy="29.5" rx="13" ry="4.2" fill="#9c1327" opacity="0.36" transform="rotate(9 219.5 29.5)"/><ellipse cx="246.377" cy="37.025" rx="3.125" ry="1.769" fill="#42050e" opacity="0.786" transform="rotate(-26.209 246.377 37.025)"/><ellipse cx="217.866" cy="46.057" rx="3.089" ry="2.407" fill="#42050e" opacity="0.77" transform="rotate(2.255 217.866 46.057)"/><ellipse cx="246.722" cy="37.261" rx="2.533" ry="2.001" fill="#42050e" opacity="0.664" transform="rotate(22.238 246.722 37.261)"/><ellipse cx="221.169" cy="16.754" rx="3.387" ry="2.327" fill="#42050e" opacity="0.695" transform="rotate(-5.021 221.169 16.754)"/><ellipse cx="214.578" cy="46.008" rx="3.259" ry="2.411" fill="#42050e" opacity="0.702" transform="rotate(18.688 214.578 46.008)"/><ellipse cx="216.286" cy="48.259" rx="2.547" ry="2.03" fill="#42050e" opacity="0.675" transform="rotate(19.681 216.286 48.259)"/><ellipse cx="232.633" cy="46.184" rx="1.97" ry="1.458" fill="#42050e" opacity="0.752" transform="rotate(15.69 232.633 46.184)"/><ellipse cx="204.817" cy="45.812" rx="3.027" ry="2.119" fill="#42050e" opacity="0.831" transform="rotate(-20.668 204.817 45.812)"/><ellipse cx="212.976" cy="48.465" rx="2.383" ry="1.929" fill="#42050e" opacity="0.624" transform="rotate(8.616 212.976 48.465)"/><ellipse cx="202.029" cy="44.038" rx="2.91" ry="1.758" fill="#42050e" opacity="0.714" transform="rotate(6.864 202.029 44.038)"/><ellipse cx="223.181" cy="29.079" rx="1.883" ry="1.149" fill="#d13a4e" opacity="0.276" transform="rotate(-37.602 223.181 29.079)"/><ellipse cx="214.48" cy="33.281" rx="1.343" ry="1.15" fill="#d13a4e" opacity="0.187" transform="rotate(4.888 214.48 33.281)"/><ellipse cx="222.218" cy="25.075" rx="2.509" ry="1.122" fill="#d13a4e" opacity="0.261" transform="rotate(37.444 222.218 25.075)"/><ellipse cx="230.44" cy="35.541" rx="1.576" ry="1.682" fill="#d13a4e" opacity="0.318" transform="rotate(33.581 230.44 35.541)"/></svg>
